<?xml version="1.0" encoding="utf-8"?>
<!-- Generator: Adobe Illustrator 15.0.0, SVG Export Plug-In . SVG Version: 6.00 Build 0)  -->
<!DOCTYPE svg PUBLIC "-//W3C//DTD SVG 1.1//EN" "http://www.w3.org/Graphics/SVG/1.1/DTD/svg11.dtd">
<svg version="1.1" id="Layer_1" xmlns="http://www.w3.org/2000/svg" xmlns:xlink="http://www.w3.org/1999/xlink" x="0px" y="0px"
	 width="44px" height="44px" viewBox="0 0 44 44" enable-background="new 0 0 44 44" xml:space="preserve">
<path fill="#6B8C41" d="M44,22c0,12.151-9.853,22-22,22C9.852,44,0,34.151,0,22C0,9.851,9.852,0,22,0C34.148,0,44,9.851,44,22"/>
<path fill="#FFFFFF" d="M27.136,14.537v-0.829c0-1.182-0.965-2.147-2.147-2.147h-5.977c-1.182,0-2.146,0.965-2.146,2.147v0.829
	h-9.17v14.722c0,1.752,1.43,3.182,3.181,3.182h22.246c1.752,0,3.185-1.43,3.185-3.182V14.537H27.136z M22.001,28.807
	c-3.216,0-5.825-2.604-5.825-5.824c0-3.215,2.608-5.824,5.825-5.824c3.215,0,5.825,2.608,5.825,5.824
	C27.826,26.203,25.216,28.807,22.001,28.807"/>
</svg>
