<?xml version="1.0" encoding="utf-8"?>
<!-- Generator: Adobe Illustrator 15.0.0, SVG Export Plug-In . SVG Version: 6.00 Build 0)  -->
<!DOCTYPE svg PUBLIC "-//W3C//DTD SVG 1.1//EN" "http://www.w3.org/Graphics/SVG/1.1/DTD/svg11.dtd">
<svg version="1.1" id="Layer_1" xmlns="http://www.w3.org/2000/svg" xmlns:xlink="http://www.w3.org/1999/xlink" x="0px" y="0px"
	 width="100px" height="100px" viewBox="0 0 100 100" enable-background="new 0 0 100 100" xml:space="preserve">
<g>
	<path fill="#628042" d="M62.5,49.998c0,6.907-5.595,12.502-12.501,12.502c-6.901,0-12.499-5.596-12.499-12.502
		c0-6.902,5.597-12.498,12.499-12.498C56.905,37.5,62.5,43.1,62.5,49.998"/>
	<path fill="#FFFFFF" d="M49.999,53.865c-1.824,0-3.31-1.476-3.31-3.307c0-1.827,1.48-3.305,3.31-3.305
		c1.831,0,3.31,1.478,3.31,3.305C53.309,52.388,51.829,53.865,49.999,53.865 M52.918,45.762v-0.469c0-0.672-0.549-1.221-1.221-1.221
		h-3.396c-0.67,0-1.222,0.549-1.222,1.221v0.469h-5.21v8.361c0,0.996,0.817,1.815,1.812,1.815h12.639
		c0.993,0,1.811-0.819,1.811-1.815v-8.361H52.918z"/>
</g>
</svg>
