<?xml version="1.0" encoding="utf-8"?>
<!-- Generator: Adobe Illustrator 15.0.0, SVG Export Plug-In . SVG Version: 6.00 Build 0)  -->
<!DOCTYPE svg PUBLIC "-//W3C//DTD SVG 1.1//EN" "http://www.w3.org/Graphics/SVG/1.1/DTD/svg11.dtd">
<svg version="1.1" id="Layer_1" xmlns="http://www.w3.org/2000/svg" xmlns:xlink="http://www.w3.org/1999/xlink" x="0px" y="0px"
	 width="100px" height="100px" viewBox="-35 -35 100 100" enable-background="new -35 -35 100 100" xml:space="preserve">
<g>
	<path fill="#F79838" d="M31,16c0,8.287-6.717,15-15.003,15C7.717,31,1,24.287,1,16C1,7.717,7.717,1,15.997,1
		C24.283,1,31,7.717,31,16"/>
	<path fill="#FFFFFF" d="M15.997,20.643c-2.191,0-3.969-1.776-3.969-3.971c0-2.194,1.778-3.97,3.969-3.97
		c2.196,0,3.974,1.776,3.974,3.97C19.971,18.865,18.193,20.643,15.997,20.643 M19.501,10.911v-0.563
		c0-0.804-0.658-1.464-1.462-1.464h-4.078c-0.803,0-1.463,0.66-1.463,1.464v0.563H6.246v10.038c0,1.193,0.977,2.168,2.17,2.168
		h15.168c1.193,0,2.169-0.975,2.169-2.168V10.911H19.501z"/>
</g>
</svg>
