<?xml version="1.0" encoding="utf-8"?>
<!-- Generator: Adobe Illustrator 15.0.0, SVG Export Plug-In . SVG Version: 6.00 Build 0)  -->
<!DOCTYPE svg PUBLIC "-//W3C//DTD SVG 1.1//EN" "http://www.w3.org/Graphics/SVG/1.1/DTD/svg11.dtd">
<svg version="1.1" id="Layer_1" xmlns="http://www.w3.org/2000/svg" xmlns:xlink="http://www.w3.org/1999/xlink" x="0px" y="0px"
	 width="30px" height="30px" viewBox="0 0 30 30" enable-background="new 0 0 30 30" xml:space="preserve">
<g opacity="0.5">
	<g>
		<defs>
			<rect id="SVGID_1_" x="580.193" y="405.082" width="30.001" height="30"/>
		</defs>
		<clipPath id="SVGID_2_">
			<use xlink:href="#SVGID_1_"  overflow="visible"/>
		</clipPath>
		<g clip-path="url(#SVGID_2_)">
			<defs>
				<rect id="SVGID_3_" x="580.193" y="405.082" width="30.001" height="30"/>
			</defs>
			<clipPath id="SVGID_4_">
				<use xlink:href="#SVGID_3_"  overflow="visible"/>
			</clipPath>
			<path clip-path="url(#SVGID_4_)" fill="#FFFFFF" d="M595.194,405.082c-8.284,0-15.001,6.717-15.001,15
				c0,8.285,6.717,15,15.001,15c8.283,0,15-6.715,15-15C610.194,411.799,603.478,405.082,595.194,405.082"/>
		</g>
	</g>
</g>
<path fill="#231F20" d="M603.356,428.504h-16.324c-0.144,0-0.261-0.115-0.261-0.26V411.92c0-0.143,0.117-0.26,0.261-0.26h16.324
	c0.143,0,0.26,0.117,0.26,0.26v16.324C603.616,428.389,603.499,428.504,603.356,428.504 M587.292,427.984h15.805v-15.803h-15.805
	V427.984z"/>
<path fill="#231F20" d="M603.356,428.645h-16.324c-0.222,0-0.401-0.178-0.401-0.4V411.92c0-0.221,0.18-0.4,0.401-0.4h16.324
	c0.222,0,0.401,0.18,0.401,0.4v16.324C603.758,428.467,603.578,428.645,603.356,428.645 M587.032,411.803
	c-0.065,0-0.118,0.053-0.118,0.117v16.324c0,0.066,0.053,0.117,0.118,0.117h16.324c0.065,0,0.118-0.051,0.118-0.117V411.92
	c0-0.064-0.053-0.117-0.118-0.117H587.032z M603.238,428.127H587.15v-16.088h16.088V428.127z M587.434,427.844h15.521v-15.521
	h-15.521V427.844z"/>
<rect x="596.787" y="419.928" fill="#231F20" width="0.519" height="8.367"/>
<path fill="#231F20" d="M597.447,428.438h-0.803v-8.651h0.803V428.438z M596.929,428.154h0.235v-8.084h-0.235V428.154z"/>
<rect x="587.245" y="419.561" fill="#231F20" width="16.057" height="0.52"/>
<path fill="#231F20" d="M603.444,420.221h-16.341v-0.803h16.341V420.221z M587.389,419.938h15.772V419.7h-15.772V419.938z"/>
<g>
	<g>
		<defs>
			<rect id="SVGID_5_" y="0" width="30" height="30"/>
		</defs>
		<clipPath id="SVGID_6_">
			<use xlink:href="#SVGID_5_"  overflow="visible"/>
		</clipPath>
		<path clip-path="url(#SVGID_6_)" fill="#FFFFFF" d="M15,0C6.716,0,0,6.716,0,15c0,8.285,6.716,15,15,15s15-6.715,15-15
			C30,6.716,23.284,0,15,0"/>
	</g>
	<path fill="#231F20" d="M6.251,6.524l6.651,6.651c0.111,0.111,0.291,0.111,0.402,0c0.111-0.112,0.111-0.292,0-0.403l-6.651-6.65
		c-0.111-0.111-0.291-0.111-0.402,0C6.14,6.233,6.14,6.413,6.251,6.524"/>
	<path fill="#231F20" d="M13.103,13.4c-0.114,0-0.221-0.045-0.301-0.125L6.15,6.625c-0.166-0.166-0.166-0.437,0-0.603
		c0.162-0.161,0.443-0.16,0.603,0l6.651,6.651c0.08,0.08,0.125,0.187,0.125,0.301c0,0.114-0.045,0.221-0.125,0.302
		C13.324,13.355,13.217,13.4,13.103,13.4 M6.452,6.18c-0.038,0-0.074,0.015-0.102,0.042C6.296,6.277,6.296,6.368,6.351,6.424
		l6.652,6.651c0.052,0.053,0.146,0.054,0.2,0c0.027-0.028,0.042-0.064,0.042-0.102s-0.015-0.074-0.041-0.101l-6.651-6.65
		C6.526,6.195,6.49,6.18,6.452,6.18"/>
	<polygon fill="#231F20" points="13.727,7.391 13.727,13.682 7.436,13.682 	"/>
	<path fill="#231F20" d="M23.915,23.367l-6.651-6.65c-0.111-0.111-0.291-0.111-0.402,0c-0.11,0.111-0.11,0.291,0,0.402l6.651,6.65
		c0.111,0.111,0.291,0.111,0.402,0C24.025,23.658,24.025,23.479,23.915,23.367"/>
	<path fill="#231F20" d="M23.714,23.996c-0.113,0-0.221-0.045-0.302-0.125l-6.651-6.652c-0.165-0.166-0.165-0.434,0-0.602
		c0.162-0.162,0.441-0.16,0.604,0l6.651,6.648c0.165,0.168,0.165,0.438,0,0.604C23.935,23.951,23.827,23.996,23.714,23.996
		 M17.062,16.775c-0.038,0-0.074,0.016-0.101,0.043c-0.056,0.055-0.056,0.145,0,0.199l6.651,6.652c0.053,0.053,0.148,0.053,0.201,0
		c0.056-0.055,0.056-0.146,0-0.203l-6.651-6.648C17.137,16.791,17.101,16.775,17.062,16.775"/>
	<polygon fill="#231F20" points="16.439,22.5 16.439,16.209 22.73,16.209 	"/>
</g>
</svg>
