<?xml version="1.0" encoding="utf-8"?>
<!-- Generator: Adobe Illustrator 15.0.0, SVG Export Plug-In . SVG Version: 6.00 Build 0)  -->
<!DOCTYPE svg PUBLIC "-//W3C//DTD SVG 1.1//EN" "http://www.w3.org/Graphics/SVG/1.1/DTD/svg11.dtd">
<svg version="1.1" id="Layer_1" xmlns="http://www.w3.org/2000/svg" xmlns:xlink="http://www.w3.org/1999/xlink" x="0px" y="0px"
	 width="30px" height="30px" viewBox="0 0 30 30" enable-background="new 0 0 30 30" xml:space="preserve">
<g opacity="0.5">
	<g>
		<defs>
			<rect id="SVGID_1_" x="580.193" y="405.082" width="30.001" height="30"/>
		</defs>
		<clipPath id="SVGID_2_">
			<use xlink:href="#SVGID_1_"  overflow="visible"/>
		</clipPath>
		<g clip-path="url(#SVGID_2_)">
			<defs>
				<rect id="SVGID_3_" x="580.193" y="405.082" width="30.001" height="30"/>
			</defs>
			<clipPath id="SVGID_4_">
				<use xlink:href="#SVGID_3_"  overflow="visible"/>
			</clipPath>
			<path clip-path="url(#SVGID_4_)" fill="#FFFFFF" d="M595.194,405.082c-8.284,0-15.001,6.717-15.001,15
				c0,8.285,6.717,15,15.001,15c8.283,0,15-6.715,15-15C610.194,411.799,603.478,405.082,595.194,405.082"/>
		</g>
	</g>
</g>
<path fill="#231F20" d="M603.356,428.504h-16.324c-0.144,0-0.261-0.115-0.261-0.26V411.92c0-0.143,0.117-0.26,0.261-0.26h16.324
	c0.143,0,0.26,0.117,0.26,0.26v16.324C603.616,428.389,603.499,428.504,603.356,428.504 M587.292,427.984h15.805v-15.803h-15.805
	V427.984z"/>
<path fill="#231F20" d="M603.356,428.645h-16.324c-0.222,0-0.401-0.178-0.401-0.4V411.92c0-0.221,0.18-0.4,0.401-0.4h16.324
	c0.222,0,0.401,0.18,0.401,0.4v16.324C603.758,428.467,603.578,428.645,603.356,428.645 M587.032,411.803
	c-0.065,0-0.118,0.053-0.118,0.117v16.324c0,0.066,0.053,0.117,0.118,0.117h16.324c0.065,0,0.118-0.051,0.118-0.117V411.92
	c0-0.064-0.053-0.117-0.118-0.117H587.032z M603.238,428.127H587.15v-16.088h16.088V428.127z M587.434,427.844h15.521v-15.521
	h-15.521V427.844z"/>
<rect x="596.787" y="419.928" fill="#231F20" width="0.519" height="8.367"/>
<path fill="#231F20" d="M597.447,428.438h-0.803v-8.651h0.803V428.438z M596.929,428.154h0.235v-8.084h-0.235V428.154z"/>
<rect x="587.245" y="419.561" fill="#231F20" width="16.057" height="0.52"/>
<path fill="#231F20" d="M603.444,420.221h-16.341v-0.803h16.341V420.221z M587.389,419.938h15.772V419.7h-15.772V419.938z"/>
<g>
	<g>
		<defs>
			<rect id="SVGID_5_" width="30" height="30"/>
		</defs>
		<clipPath id="SVGID_6_">
			<use xlink:href="#SVGID_5_"  overflow="visible"/>
		</clipPath>
		<path clip-path="url(#SVGID_6_)" fill="#FFFFFF" d="M15,0C6.716,0,0,6.716,0,15s6.716,15,15,15s15-6.716,15-15S23.284,0,15,0"/>
		<path clip-path="url(#SVGID_6_)" fill="#231F20" d="M13.675,13.315L7.023,6.664c-0.111-0.111-0.291-0.111-0.402,0
			c-0.111,0.112-0.111,0.292,0,0.403l6.651,6.65c0.111,0.111,0.291,0.111,0.402,0C13.786,13.606,13.786,13.426,13.675,13.315"/>
		<path clip-path="url(#SVGID_6_)" fill="#231F20" d="M13.474,13.942c-0.113,0-0.221-0.044-0.302-0.125l-6.65-6.65
			c-0.08-0.08-0.125-0.187-0.125-0.301c0-0.114,0.045-0.221,0.125-0.302c0.159-0.161,0.441-0.162,0.602,0l6.652,6.651
			c0.165,0.166,0.165,0.436,0,0.602C13.694,13.898,13.586,13.942,13.474,13.942"/>
		<path clip-path="url(#SVGID_6_)" fill="#231F20" d="M6.342,12.448H6.199L6.3,12.549l6.292-6.291
			c0.041-0.041,0.053-0.103,0.031-0.156c-0.022-0.054-0.075-0.089-0.133-0.089H6.199c-0.038,0-0.075,0.016-0.101,0.042
			C6.071,6.082,6.056,6.119,6.056,6.157v6.291c0,0.058,0.035,0.11,0.088,0.132c0.054,0.023,0.115,0.01,0.156-0.031l-0.101-0.101
			H6.342"/>
		<path clip-path="url(#SVGID_6_)" fill="#231F20" d="M23.178,23.562c-0.114,0-0.222-0.045-0.302-0.126l-6.651-6.649
			c-0.165-0.167-0.165-0.437,0-0.603c0.162-0.162,0.441-0.161,0.604-0.001l6.65,6.649c0.08,0.081,0.124,0.188,0.125,0.301
			c0,0.115-0.045,0.223-0.125,0.304C23.398,23.517,23.291,23.562,23.178,23.562"/>
	</g>
	<polygon fill="#231F20" points="23.801,17.553 23.801,23.844 17.51,23.844 	"/>
	<g>
		<defs>
			<rect id="SVGID_7_" width="30" height="30"/>
		</defs>
		<clipPath id="SVGID_8_">
			<use xlink:href="#SVGID_7_"  overflow="visible"/>
		</clipPath>
		<path clip-path="url(#SVGID_8_)" fill="#231F20" d="M23.801,17.553h-0.143V23.7h-5.802l6.046-6.047L23.801,17.553h-0.143H23.801
			L23.7,17.451l-6.292,6.291c-0.041,0.041-0.053,0.104-0.031,0.156c0.022,0.054,0.075,0.089,0.133,0.089h6.291
			c0.038,0,0.075-0.016,0.102-0.042c0.026-0.027,0.042-0.064,0.042-0.102v-6.291c0-0.059-0.035-0.11-0.088-0.133
			c-0.055-0.022-0.115-0.01-0.156,0.031L23.801,17.553z"/>
	</g>
</g>
</svg>
