<?xml version="1.0" encoding="utf-8"?>
<!-- Generator: Adobe Illustrator 15.0.0, SVG Export Plug-In . SVG Version: 6.00 Build 0)  -->
<!DOCTYPE svg PUBLIC "-//W3C//DTD SVG 1.1//EN" "http://www.w3.org/Graphics/SVG/1.1/DTD/svg11.dtd">
<svg version="1.1" id="Layer_1" xmlns="http://www.w3.org/2000/svg" xmlns:xlink="http://www.w3.org/1999/xlink" x="0px" y="0px"
	 width="30px" height="30px" viewBox="0 0 30 30" enable-background="new 0 0 30 30" xml:space="preserve">
<g>
	<g>
		<g>
			<defs>
				<rect id="SVGID_1_" width="30" height="30"/>
			</defs>
			<clipPath id="SVGID_2_">
				<use xlink:href="#SVGID_1_"  overflow="visible"/>
			</clipPath>
			<path clip-path="url(#SVGID_2_)" fill="#FFFFFF" d="M15,0C6.716,0,0,6.716,0,15s6.716,15,15,15c8.283,0,15-6.716,15-15
				S23.283,0,15,0"/>
		</g>
	</g>
</g>
<g>
	<path d="M13.697,18.314v-0.527c0-0.762,0.117-1.389,0.352-1.88c0.234-0.492,0.671-1.011,1.309-1.558
		c0.886-0.749,1.443-1.312,1.675-1.689s0.347-0.833,0.347-1.367c0-0.664-0.213-1.177-0.64-1.538s-1.04-0.542-1.841-0.542
		c-0.515,0-1.016,0.06-1.504,0.181s-1.048,0.34-1.68,0.659l-0.576-1.318c1.23-0.645,2.517-0.967,3.857-0.967
		c1.243,0,2.21,0.306,2.9,0.918s1.035,1.475,1.035,2.588c0,0.475-0.063,0.894-0.19,1.255s-0.314,0.703-0.562,1.025
		s-0.781,0.841-1.602,1.558c-0.657,0.561-1.092,1.025-1.304,1.396s-0.317,0.865-0.317,1.484v0.322H13.697z M13.219,21.215
		c0-0.885,0.391-1.328,1.172-1.328c0.378,0,0.669,0.113,0.874,0.342s0.308,0.557,0.308,0.986c0,0.416-0.104,0.74-0.313,0.972
		s-0.498,0.347-0.869,0.347c-0.339,0-0.618-0.103-0.84-0.308S13.219,21.684,13.219,21.215z"/>
</g>
<g>
</g>
<g>
</g>
</svg>
