<?xml version="1.0" encoding="utf-8"?>
<!-- Generator: Adobe Illustrator 15.0.0, SVG Export Plug-In . SVG Version: 6.00 Build 0)  -->
<!DOCTYPE svg PUBLIC "-//W3C//DTD SVG 1.1//EN" "http://www.w3.org/Graphics/SVG/1.1/DTD/svg11.dtd">
<svg version="1.1" xmlns="http://www.w3.org/2000/svg" xmlns:xlink="http://www.w3.org/1999/xlink" x="0px" y="0px"
	 width="90.709px" height="90.708px" viewBox="1.28 1.812 90.709 90.708" enable-background="new 1.28 1.812 90.709 90.708"
	 xml:space="preserve">
<g id="Layer_1">
	<g>
		<g opacity="0.5">
			<path fill="#6B8C40" d="M50.935,1.812H11.25c-2.167,0-3.925,1.738-3.925,3.88v81.925c0,2.142,1.758,3.88,3.925,3.88h39.685
				c2.168,0,3.925-1.74,3.925-3.88V5.691C54.86,3.55,53.104,1.812,50.935,1.812z M27.741,6.556h6.704
				c0.227,0,0.409,0.181,0.409,0.404c0,0.221-0.183,0.404-0.409,0.404h-6.704c-0.227,0-0.409-0.182-0.409-0.404
				C27.333,6.736,27.513,6.556,27.741,6.556z M31.092,87.994c-1.412,0-2.562-1.137-2.562-2.533c0-1.399,1.149-2.534,2.562-2.534
				c1.415,0,2.563,1.135,2.563,2.534C33.656,86.857,32.507,87.994,31.092,87.994z M51.085,80.286H11.099V13.022h39.985
				L51.085,80.286L51.085,80.286z"/>
		</g>
		<rect x="1.28" y="46.654" fill="#F9F9FA" width="66.162" height="41.984"/>
		<path fill="#6B8C40" d="M91.989,88.638V49.403c0-2.145-1.758-3.882-3.925-3.882H5.203c-2.167,0-3.924,1.738-3.924,3.882v39.235
			c0,2.144,1.758,3.882,3.924,3.882h82.859C90.231,92.52,91.989,90.782,91.989,88.638z M87.19,65.706v6.63
			c0,0.224-0.183,0.404-0.408,0.404c-0.224,0-0.408-0.181-0.408-0.404v-6.63c0-0.223,0.184-0.403,0.408-0.403
			C87.007,65.301,87.19,65.481,87.19,65.706z M4.823,69.02c0-1.397,1.149-2.533,2.562-2.533c1.415,0,2.563,1.136,2.563,2.533
			c0,1.398-1.148,2.533-2.563,2.533C5.971,71.553,4.823,70.418,4.823,69.02z M12.618,88.789V49.252h68.031v39.534L12.618,88.789
			L12.618,88.789z"/>
	</g>
</g>
<g id="Layer_2">
	<g>
		<polygon points="57.15,11.958 66.801,18.666 66.801,5.25 57.15,11.958 		"/>
		<polygon points="85.912,40.154 92.024,31.583 79.801,31.583 85.912,40.154 		"/>
		<path fill="none" stroke="#000000" stroke-miterlimit="10" d="M65.156,11.958c0,0,20.906,0.124,20.906,20.73"/>
	</g>
</g>
</svg>
