<?xml version="1.0" encoding="utf-8"?>
<!-- Generator: Adobe Illustrator 15.0.0, SVG Export Plug-In . SVG Version: 6.00 Build 0)  -->
<!DOCTYPE svg PUBLIC "-//W3C//DTD SVG 1.1//EN" "http://www.w3.org/Graphics/SVG/1.1/DTD/svg11.dtd">
<svg version="1.1" id="Layer_1" xmlns="http://www.w3.org/2000/svg" xmlns:xlink="http://www.w3.org/1999/xlink" x="0px" y="0px"
	 width="40px" height="40px" viewBox="-5 -4.167 40 40" enable-background="new -5 -4.167 40 40" xml:space="preserve">
<g>
	<g>
		<g>
			<g>
				<g>
					<defs>
						<rect id="SVGID_1_" x="-5" y="-4.167" width="40" height="40"/>
					</defs>
					<clipPath id="SVGID_2_">
						<use xlink:href="#SVGID_1_"  overflow="visible"/>
					</clipPath>
					<path clip-path="url(#SVGID_2_)" fill="#FFFFFF" d="M15-4.167c-11.045,0-20,8.955-20,20c0,11.045,8.955,20,20,20
						c11.044,0,20-8.955,20-20C35,4.788,26.044-4.167,15-4.167"/>
				</g>
			</g>
		</g>
	</g>
</g>
<path fill="#4D4D4D" d="M28.627,14.961h-5.195c-0.187-1.679-0.858-3.211-1.877-4.449l3.697-3.698c0.34-0.34,0.34-0.892,0-1.233
	c-0.339-0.34-0.893-0.34-1.233,0l-3.706,3.705c-1.241-1-2.768-1.656-4.442-1.827V2.207c0-0.481-0.389-0.872-0.87-0.872
	s-0.871,0.391-0.871,0.872v5.253c-1.673,0.171-3.201,0.827-4.442,1.827L5.981,5.582c-0.34-0.34-0.892-0.34-1.233,0
	c-0.342,0.34-0.34,0.892,0,1.233l3.698,3.698c-1.018,1.238-1.691,2.77-1.875,4.449H1.374c-0.481,0-0.872,0.39-0.872,0.872
	s0.391,0.87,0.872,0.87h5.184c0.161,1.699,0.82,3.252,1.833,4.508l-3.641,3.641c-0.34,0.341-0.34,0.895,0,1.231
	c0.17,0.171,0.393,0.257,0.616,0.257c0.223,0,0.445-0.086,0.616-0.257l3.635-3.633c1.253,1.028,2.808,1.709,4.512,1.885v5.123
	c0,0.482,0.391,0.872,0.872,0.872c0.481,0,0.871-0.39,0.871-0.872v-5.123c1.706-0.176,3.26-0.856,4.514-1.885l3.635,3.633
	c0.172,0.171,0.393,0.257,0.617,0.257c0.222,0,0.444-0.086,0.616-0.257c0.34-0.337,0.34-0.891,0-1.231l-3.641-3.641
	c1.011-1.256,1.673-2.807,1.832-4.508h5.184c0.481,0,0.871-0.389,0.871-0.87S29.107,14.961,28.627,14.961z M15,22.828
	c-3.828,0-6.929-3.104-6.929-6.932c0-3.827,3.101-6.929,6.929-6.929V22.828z"/>
</svg>
