<?xml version="1.0" encoding="utf-8"?>
<!-- Generator: Adobe Illustrator 15.0.0, SVG Export Plug-In . SVG Version: 6.00 Build 0)  -->
<!DOCTYPE svg PUBLIC "-//W3C//DTD SVG 1.1//EN" "http://www.w3.org/Graphics/SVG/1.1/DTD/svg11.dtd">
<svg version="1.1" id="Layer_1" xmlns="http://www.w3.org/2000/svg" xmlns:xlink="http://www.w3.org/1999/xlink" x="0px" y="0px"
	 width="40px" height="40px" viewBox="-5 0 40 40" enable-background="new -5 0 40 40" xml:space="preserve">
<g>
	<g>
		<g>
			<g>
				<g>
					<defs>
						<rect id="SVGID_1_" x="-5" width="40" height="40"/>
					</defs>
					<clipPath id="SVGID_2_">
						<use xlink:href="#SVGID_1_"  overflow="visible"/>
					</clipPath>
					<path clip-path="url(#SVGID_2_)" fill="#FFFFFF" d="M15,0C3.955,0-5,8.955-5,20c0,11.046,8.955,20,20,20
						c11.044,0,20-8.954,20-20C35,8.955,26.044,0,15,0"/>
				</g>
			</g>
		</g>
	</g>
</g>
<path display="none" fill="#4D4D4D" d="M25.221,14.346h-3.897c-0.14-1.259-0.644-2.408-1.408-3.336l2.774-2.774
	c0.254-0.255,0.254-0.669,0-0.925c-0.256-0.255-0.67-0.255-0.926,0l-2.779,2.779c-0.932-0.75-2.076-1.242-3.332-1.37V4.78
	c0-0.361-0.292-0.654-0.652-0.654s-0.654,0.293-0.654,0.654V8.72c-1.254,0.128-2.4,0.62-3.331,1.37L8.236,7.311
	c-0.255-0.255-0.669-0.255-0.925,0s-0.255,0.669,0,0.925l2.774,2.774c-0.764,0.928-1.269,2.077-1.407,3.336H4.78
	c-0.361,0-0.654,0.293-0.654,0.654s0.293,0.652,0.654,0.652h3.888c0.12,1.274,0.615,2.438,1.374,3.381l-2.731,2.73
	c-0.255,0.256-0.255,0.67,0,0.924c0.128,0.129,0.295,0.192,0.462,0.192s0.334-0.063,0.462-0.192l2.726-2.725
	c0.94,0.771,2.106,1.282,3.384,1.413v3.843c0,0.361,0.293,0.654,0.654,0.654s0.653-0.293,0.653-0.654v-3.843
	c1.279-0.131,2.445-0.642,3.385-1.413l2.727,2.725c0.129,0.129,0.295,0.192,0.463,0.192c0.166,0,0.334-0.063,0.463-0.192
	c0.254-0.254,0.254-0.668,0-0.924l-2.731-2.73c0.759-0.942,1.255-2.105,1.375-3.381h3.888c0.36,0,0.653-0.292,0.653-0.652
	S25.58,14.346,25.221,14.346z M15,20.246c-2.871,0-5.197-2.328-5.197-5.198S12.129,9.851,15,9.851v5.482V20.246z"/>
<g>
	<path fill="#4D4D4D" d="M28.628,19.13h-5.195c-0.186-1.68-0.859-3.21-1.877-4.447l3.699-3.699c0.339-0.341,0.339-0.892,0-1.233
		c-0.341-0.34-0.893-0.34-1.234,0l-3.705,3.705c-1.242-0.999-2.769-1.655-4.443-1.825V6.375c0-0.482-0.388-0.873-0.87-0.873
		c-0.481,0-0.872,0.391-0.872,0.873v5.254c-1.672,0.169-3.2,0.826-4.441,1.825L5.982,9.75c-0.341-0.34-0.892-0.34-1.233,0
		c-0.34,0.341-0.34,0.892,0,1.233l3.698,3.699c-1.019,1.238-1.692,2.768-1.877,4.447H1.375c-0.48,0-0.871,0.393-0.871,0.873
		c0,0.481,0.391,0.871,0.871,0.871h5.184c0.16,1.698,0.82,3.249,1.832,4.506L4.75,29.019c-0.34,0.344-0.34,0.893,0,1.234
		c0.17,0.169,0.393,0.254,0.617,0.254c0.223,0,0.445-0.085,0.616-0.254l3.635-3.636c1.252,1.031,2.808,1.71,4.512,1.884v5.124
		c0,0.481,0.39,0.874,0.872,0.874s0.871-0.393,0.871-0.874v-5.124c1.703-0.174,3.261-0.853,4.514-1.884l3.635,3.636
		c0.17,0.169,0.394,0.254,0.617,0.254c0.222,0,0.445-0.085,0.617-0.254c0.339-0.342,0.339-0.891,0-1.234l-3.642-3.641
		c1.012-1.257,1.672-2.805,1.832-4.506h5.185c0.479,0,0.871-0.39,0.871-0.871C29.501,19.521,29.11,19.13,28.628,19.13z
		 M15.001,26.996L15.001,26.996L15.001,26.996L15.001,26.996L15.001,26.996c-3.828,0-6.931-3.102-6.931-6.931
		c0-3.826,3.103-6.929,6.931-6.929l0,0l0,0l0,0l0,0c3.828,0,6.929,3.103,6.929,6.929C21.931,23.895,18.829,26.996,15.001,26.996z"/>
</g>
</svg>
