<?xml version="1.0" encoding="utf-8"?>
<!-- Generator: Adobe Illustrator 15.0.0, SVG Export Plug-In . SVG Version: 6.00 Build 0)  -->
<!DOCTYPE svg PUBLIC "-//W3C//DTD SVG 1.1//EN" "http://www.w3.org/Graphics/SVG/1.1/DTD/svg11.dtd">
<svg version="1.1" id="Layer_1" xmlns="http://www.w3.org/2000/svg" xmlns:xlink="http://www.w3.org/1999/xlink" x="0px" y="0px"
	 width="39.969px" height="39.969px" viewBox="0 0 39.969 39.969" enable-background="new 0 0 39.969 39.969" xml:space="preserve">
<g>
	<g>
		<path fill="#E59241" d="M27.763,11.333l-1.11,1.664c2.031,1.65,3.332,4.166,3.332,6.987c0,2.822-1.301,5.338-3.332,6.988
			l1.11,1.662c2.566-2.012,4.222-5.135,4.222-8.65C31.985,16.469,30.33,13.346,27.763,11.333z M25.534,14.671l-1.122,1.68
			c0.968,0.913,1.58,2.198,1.58,3.634c0,1.437-0.612,2.722-1.58,3.635l1.122,1.681c1.497-1.286,2.45-3.188,2.45-5.316
			C27.985,17.857,27.032,15.956,25.534,14.671z M19.985,8.984c-1.177,0-1.533,0.684-1.533,0.684s-3.062,3.363-5.169,4.847
			c-0.388,0.247-0.814,0.469-1.568,0.469H9.985c-1.104,0-2,0.896-2,2v6c0,1.104,0.896,2,2,2h1.729c0.754,0,1.181,0.223,1.567,0.469
			c2.107,1.484,5.169,4.848,5.169,4.848s0.357,0.684,1.534,0.684c1.104,0,2-0.895,2-2v-18C21.985,9.879,21.088,8.984,19.985,8.984z"
			/>
	</g>
</g>
<g>
	<path fill="#E59241" d="M19.985,0.984c10.478,0,19,8.523,19,19c0,10.477-8.522,19-19,19c-10.477,0-19-8.523-19-19
		C0.985,9.507,9.508,0.984,19.985,0.984 M19.985-0.016c-11.046,0-20,8.954-20,20c0,11.047,8.954,20,20,20s20-8.953,20-20
		C39.985,8.938,31.03-0.016,19.985-0.016L19.985-0.016z"/>
</g>
</svg>
