<?xml version="1.0" encoding="utf-8"?>
<!-- Generator: Adobe Illustrator 15.0.0, SVG Export Plug-In . SVG Version: 6.00 Build 0)  -->
<!DOCTYPE svg PUBLIC "-//W3C//DTD SVG 1.1//EN" "http://www.w3.org/Graphics/SVG/1.1/DTD/svg11.dtd">
<svg version="1.1" id="Layer_1" xmlns="http://www.w3.org/2000/svg" xmlns:xlink="http://www.w3.org/1999/xlink" x="0px" y="0px"
	 width="44px" height="44px" viewBox="0 0 44 44" enable-background="new 0 0 44 44" xml:space="preserve">
<path fill="#E6E8E7" d="M43.5,22.001c0,11.873-9.625,21.5-21.5,21.5c-11.875,0-21.5-9.627-21.5-21.5c0-11.875,9.625-21.5,21.5-21.5
	C33.875,0.501,43.5,10.126,43.5,22.001"/>
<path fill="none" stroke="#6E6E70" stroke-miterlimit="10" d="M32.63,32.635L11.369,11.367 M11.369,32.635L32.63,11.367"/>
<text transform="matrix(1 0 0 1 -203.1553 -244.2622)" font-family="'OpenSans'" font-size="6">44 px</text>
<text transform="matrix(1 0 0 1 -177.9771 -224.085)" font-family="'OpenSans'" font-size="6">44 px</text>
<g>
	<defs>
		<rect id="SVGID_1_" x="-287.259" y="-603.924" width="447.874" height="1247.245"/>
	</defs>
	<clipPath id="SVGID_2_">
		<use xlink:href="#SVGID_1_"  overflow="visible"/>
	</clipPath>
	<path clip-path="url(#SVGID_2_)" fill="#FFFFFF" d="M5.684-387.183l-8.371-5.185c-0.609-0.401-1.107-0.106-1.107,0.654v10.064
		c0,0.76,0.498,1.055,1.107,0.654l8.371-5.185c0,0,0.297-0.209,0.297-0.501C5.981-386.974,5.684-387.183,5.684-387.183"/>
	<path clip-path="url(#SVGID_2_)" fill="#6B8C41" d="M-243.15-225.667c0,5.716-4.634,10.35-10.35,10.35
		c-5.715,0-10.35-4.634-10.35-10.35c0-5.716,4.635-10.35,10.35-10.35C-247.784-236.017-243.15-231.382-243.15-225.667"/>
	<path clip-path="url(#SVGID_2_)" fill="#FFFFFF" d="M-251.083-229.178v-0.39c0-0.556-0.454-1.01-1.01-1.01h-2.812
		c-0.556,0-1.01,0.454-1.01,1.01v0.39h-4.314v6.926c0,0.824,0.673,1.497,1.497,1.497h10.466c0.824,0,1.497-0.673,1.497-1.497v-6.926
		H-251.083z M-253.5-222.464c-1.513,0-2.74-1.226-2.74-2.74c0-1.513,1.227-2.74,2.74-2.74c1.513,0,2.74,1.227,2.74,2.74
		C-250.76-223.69-251.987-222.464-253.5-222.464"/>
	<path clip-path="url(#SVGID_2_)" fill="#F89825" d="M-214.133-225.667c0,5.716-4.634,10.35-10.35,10.35
		c-5.715,0-10.35-4.634-10.35-10.35c0-5.716,4.635-10.35,10.35-10.35C-218.768-236.017-214.133-231.382-214.133-225.667"/>
	<path clip-path="url(#SVGID_2_)" fill="#FFFFFF" d="M-222.067-229.178v-0.39c0-0.556-0.454-1.01-1.01-1.01h-2.812
		c-0.556,0-1.01,0.454-1.01,1.01v0.39h-4.314v6.926c0,0.824,0.673,1.497,1.497,1.497h10.466c0.824,0,1.497-0.673,1.497-1.497v-6.926
		H-222.067z M-224.483-222.464c-1.513,0-2.74-1.226-2.74-2.74c0-1.513,1.227-2.74,2.74-2.74s2.74,1.227,2.74,2.74
		C-221.743-223.69-222.97-222.464-224.483-222.464"/>
	<path clip-path="url(#SVGID_2_)" fill="#E6E8E7" d="M-185.381-225.667c0,5.57-4.515,10.085-10.085,10.085
		c-5.57,0-10.085-4.515-10.085-10.085s4.515-10.085,10.085-10.085C-189.896-235.751-185.381-231.236-185.381-225.667"/>
	<circle clip-path="url(#SVGID_2_)" fill="none" stroke="#6E6E70" stroke-miterlimit="10" cx="-195.466" cy="-225.667" r="10.085"/>
</g>
<path fill="none" stroke="#6E6E70" stroke-miterlimit="10" d="M-190.479-220.678l-9.974-9.976 M-200.454-220.678l9.974-9.976"/>
<line fill="none" stroke="#000000" stroke-width="0.283" x1="-206.188" y1="-240.428" x2="-184.881" y2="-240.428"/>
<line fill="none" stroke="#000000" stroke-width="0.283" x1="-181.346" y1="-215.081" x2="-181.346" y2="-236.388"/>
<text transform="matrix(1 0 0 1 -203.1553 -244.2622)" font-family="'OpenSans'" font-size="6">44 px</text>
<text transform="matrix(1 0 0 1 -177.9771 -224.085)" font-family="'OpenSans'" font-size="6">44 px</text>
<g>
	<defs>
		<rect id="SVGID_3_" x="-287.259" y="-603.924" width="447.874" height="1247.245"/>
	</defs>
	<clipPath id="SVGID_4_">
		<use xlink:href="#SVGID_3_"  overflow="visible"/>
	</clipPath>
	<path clip-path="url(#SVGID_4_)" fill="#FFFFFF" d="M5.684-387.183l-8.371-5.185c-0.609-0.401-1.107-0.106-1.107,0.654v10.064
		c0,0.76,0.498,1.055,1.107,0.654l8.371-5.185c0,0,0.297-0.209,0.297-0.501C5.981-386.974,5.684-387.183,5.684-387.183"/>
	<path clip-path="url(#SVGID_4_)" fill="#6B8C41" d="M-243.15-225.667c0,5.716-4.634,10.35-10.35,10.35
		c-5.715,0-10.35-4.634-10.35-10.35c0-5.716,4.635-10.35,10.35-10.35C-247.784-236.017-243.15-231.382-243.15-225.667"/>
	<path clip-path="url(#SVGID_4_)" fill="#FFFFFF" d="M-251.083-229.178v-0.39c0-0.556-0.454-1.01-1.01-1.01h-2.812
		c-0.556,0-1.01,0.454-1.01,1.01v0.39h-4.314v6.926c0,0.824,0.673,1.497,1.497,1.497h10.466c0.824,0,1.497-0.673,1.497-1.497v-6.926
		H-251.083z M-253.5-222.464c-1.513,0-2.74-1.226-2.74-2.74c0-1.513,1.227-2.74,2.74-2.74c1.513,0,2.74,1.227,2.74,2.74
		C-250.76-223.69-251.987-222.464-253.5-222.464"/>
	<path clip-path="url(#SVGID_4_)" fill="#F89825" d="M-214.133-225.667c0,5.716-4.634,10.35-10.35,10.35
		c-5.715,0-10.35-4.634-10.35-10.35c0-5.716,4.635-10.35,10.35-10.35C-218.768-236.017-214.133-231.382-214.133-225.667"/>
	<path clip-path="url(#SVGID_4_)" fill="#FFFFFF" d="M-222.067-229.178v-0.39c0-0.556-0.454-1.01-1.01-1.01h-2.812
		c-0.556,0-1.01,0.454-1.01,1.01v0.39h-4.314v6.926c0,0.824,0.673,1.497,1.497,1.497h10.466c0.824,0,1.497-0.673,1.497-1.497v-6.926
		H-222.067z M-224.483-222.464c-1.513,0-2.74-1.226-2.74-2.74c0-1.513,1.227-2.74,2.74-2.74s2.74,1.227,2.74,2.74
		C-221.743-223.69-222.97-222.464-224.483-222.464"/>
	<path clip-path="url(#SVGID_4_)" fill="#E6E8E7" d="M-185.381-225.667c0,5.57-4.515,10.085-10.085,10.085
		c-5.57,0-10.085-4.515-10.085-10.085s4.515-10.085,10.085-10.085C-189.896-235.751-185.381-231.236-185.381-225.667"/>
	<circle clip-path="url(#SVGID_4_)" fill="none" stroke="#6E6E70" stroke-miterlimit="10" cx="-195.466" cy="-225.667" r="10.085"/>
</g>
<path fill="none" stroke="#6E6E70" stroke-miterlimit="10" d="M-190.479-220.678l-9.974-9.976 M-200.454-220.678l9.974-9.976"/>
<line fill="none" stroke="#000000" stroke-width="0.283" x1="-206.188" y1="-240.428" x2="-184.881" y2="-240.428"/>
<line fill="none" stroke="#000000" stroke-width="0.283" x1="-181.346" y1="-215.081" x2="-181.346" y2="-236.388"/>
<path fill="none" stroke="#6E6E70" stroke-miterlimit="10" d="M43.5,22c0,11.877-9.625,21.499-21.5,21.499
	C10.125,43.499,0.5,33.876,0.5,22C0.5,10.125,10.125,0.5,22,0.5C33.875,0.5,43.5,10.125,43.5,22z"/>
</svg>
